<svg width="14" height="14" viewBox="0 0 14 14" fill="none" xmlns="http://www.w3.org/2000/svg">
<path d="M0.292893 13.0208C-0.097631 12.6303 -0.097631 11.9971 0.292893 11.6066L11.6066 0.292894C11.9971 -0.0976301 12.6303 -0.0976305 13.0208 0.292894C13.4113 0.683418 13.4113 1.31658 13.0208 1.70711L1.70711 13.0208C1.31658 13.4113 0.683418 13.4113 0.292893 13.0208Z" fill="#2B5DA8"/>
<path d="M0.292893 0.292893C0.683417 -0.0976311 1.31658 -0.0976311 1.70711 0.292893L13.0208 11.6066C13.4113 11.9971 13.4113 12.6303 13.0208 13.0208C12.6303 13.4113 11.9971 13.4113 11.6066 13.0208L0.292893 1.70711C-0.0976309 1.31658 -0.0976312 0.683417 0.292893 0.292893Z" fill="#2B5DA8"/>
</svg>
